<svg width="826" height="1911" viewBox="0 0 826 1911" fill="none" xmlns="http://www.w3.org/2000/svg">
<path d="M416 1C88 247.4 222.667 377 331 411C489.667 436 815.869 304.762 811 495C806.518 670.111 398 670 398 670C259 725.333 156.63 741.104 53 853C-124.673 1044.84 520.337 520.878 706 705C809.851 807.988 843.132 919.28 816 1063C768.544 1314.38 195.891 1082.42 221 1337C245.111 1581.47 739.756 1310.15 815 1544C907.889 1832.68 178.624 1924.72 46 1652C-0.90567 1555.55 -11.3982 1482.7 16 1379C89.5983 1100.45 655 1475 656 1746C657 2017 184 1870 184 1870" stroke="black"/>
</svg>
